<mxfile host="65bd71144e">
    <diagram id="S-GDTfAIzqxonj3rZFx7" name="Page-1">
        <mxGraphModel dx="893" dy="570" grid="1" gridSize="10" guides="1" tooltips="1" connect="1" arrows="1" fold="1" page="1" pageScale="1" pageWidth="850" pageHeight="1100" math="0" shadow="0">
            <root>
                <mxCell id="0"/>
                <mxCell id="1" parent="0"/>
                <mxCell id="5" value="" style="group" parent="1" vertex="1" connectable="0">
                    <mxGeometry x="60" y="90" width="320" height="573.03" as="geometry"/>
                </mxCell>
                <mxCell id="2" value="" style="rounded=0;whiteSpace=wrap;html=1;rotation=90;" parent="5" vertex="1">
                    <mxGeometry x="-86.85714285714285" y="138.23999999999998" width="493.71428571428567" height="268.8" as="geometry"/>
                </mxCell>
                <mxCell id="3" value="ECStack" style="text;strokeColor=none;fillColor=none;html=1;fontSize=24;fontStyle=1;verticalAlign=middle;align=center;" parent="5" vertex="1">
                    <mxGeometry x="68.57" y="-20" width="182.86" height="50" as="geometry"/>
                </mxCell>
                <mxCell id="7" value="" style="group1" parent="5" vertex="1" connectable="0">
                    <mxGeometry x="41.14" y="240" width="240" height="283.03" as="geometry"/>
                </mxCell>
                <mxCell id="4" value="" style="whiteSpace=wrap;html=1;aspect=fixed;" parent="7" vertex="1">
                    <mxGeometry y="43.03" width="240" height="240" as="geometry"/>
                </mxCell>
                <mxCell id="6" value="&lt;font style=&quot;font-size: 9px;&quot;&gt;GEC(global exection context)&lt;/font&gt;" style="text;strokeColor=none;fillColor=none;html=1;fontSize=24;fontStyle=1;verticalAlign=middle;align=center;" parent="7" vertex="1">
                    <mxGeometry x="27.43" width="182.86" height="43.03" as="geometry"/>
                </mxCell>
                <mxCell id="20" value="VO(variable object) : GO" style="rounded=0;whiteSpace=wrap;html=1;fontSize=12;" parent="7" vertex="1">
                    <mxGeometry x="20" y="60" width="210" height="60" as="geometry"/>
                </mxCell>
                <mxCell id="21" value="&lt;br&gt;&lt;br&gt;开始执行代码&lt;br&gt;foo()" style="rounded=0;whiteSpace=wrap;html=1;fontSize=12;" parent="7" vertex="1">
                    <mxGeometry x="20" y="133.02999999999997" width="210" height="60" as="geometry"/>
                </mxCell>
                <mxCell id="16" value="" style="rounded=0;whiteSpace=wrap;html=1;fontSize=11;" parent="5" vertex="1">
                    <mxGeometry x="50" y="110" width="230" height="110" as="geometry"/>
                </mxCell>
                <mxCell id="17" value="&lt;span style=&quot;font-size: 12px;&quot;&gt;函数执行上下文(FEC)&lt;br&gt;Functional Execution Context&lt;br&gt;&lt;/span&gt;" style="text;strokeColor=none;fillColor=none;html=1;fontSize=24;fontStyle=1;verticalAlign=middle;align=center;" parent="5" vertex="1">
                    <mxGeometry x="110" y="70" width="100" height="20" as="geometry"/>
                </mxCell>
                <mxCell id="35" value="VO(variable Object) : AO&lt;br&gt;scope chain: VO + ParentScope" style="rounded=0;whiteSpace=wrap;html=1;fontSize=12;align=left;" parent="5" vertex="1">
                    <mxGeometry x="65" y="110" width="200" height="70" as="geometry"/>
                </mxCell>
                <mxCell id="38" value="开始执行函数&lt;br&gt;console.log(name)" style="rounded=0;whiteSpace=wrap;html=1;fontSize=15;" parent="5" vertex="1">
                    <mxGeometry x="68.57" y="180" width="190" height="40" as="geometry"/>
                </mxCell>
                <mxCell id="18" style="edgeStyle=none;html=1;exitX=0.5;exitY=1;exitDx=0;exitDy=0;fontSize=12;" parent="1" source="10" target="12" edge="1">
                    <mxGeometry relative="1" as="geometry"/>
                </mxCell>
                <object label="name: undefined&lt;br&gt;foo:0xa00" name="undefined" placeholders="1" id="10">
                    <mxCell style="rounded=0;whiteSpace=wrap;html=1;" parent="1" vertex="1">
                        <mxGeometry x="680" y="150" width="120" height="60" as="geometry"/>
                    </mxCell>
                </object>
                <mxCell id="11" value="&lt;font style=&quot;font-size: 19px;&quot;&gt;GlobalObject&lt;/font&gt;" style="text;strokeColor=none;fillColor=none;html=1;fontSize=24;fontStyle=1;verticalAlign=middle;align=center;" parent="1" vertex="1">
                    <mxGeometry x="690" y="110" width="100" height="40" as="geometry"/>
                </mxCell>
                <mxCell id="12" value="&lt;font style=&quot;font-size: 11px;&quot;&gt;[[scope]]: parent scope&lt;br&gt;函数执行体(代码块)&lt;br&gt;&lt;/font&gt;" style="rounded=0;whiteSpace=wrap;html=1;fontSize=19;" parent="1" vertex="1">
                    <mxGeometry x="690" y="300" width="120" height="60" as="geometry"/>
                </mxCell>
                <mxCell id="13" value="&lt;font style=&quot;font-size: 12px;&quot;&gt;开辟空间 0xa00 存储函数(foo)&lt;/font&gt;" style="text;strokeColor=none;fillColor=none;html=1;fontSize=24;fontStyle=1;verticalAlign=middle;align=center;" parent="1" vertex="1">
                    <mxGeometry x="700" y="250" width="100" height="30" as="geometry"/>
                </mxCell>
                <mxCell id="19" style="edgeStyle=none;html=1;exitX=1;exitY=0.5;exitDx=0;exitDy=0;entryX=1;entryY=0;entryDx=0;entryDy=0;fontSize=12;" parent="1" source="13" target="13" edge="1">
                    <mxGeometry relative="1" as="geometry"/>
                </mxCell>
                <object label="参数:num:undefined&lt;br&gt;变量: m: undefined&lt;br&gt;n:undefined" name="undefined" placeholders="1" id="36">
                    <mxCell style="rounded=0;whiteSpace=wrap;html=1;" parent="1" vertex="1">
                        <mxGeometry x="440" y="160" width="120" height="60" as="geometry"/>
                    </mxCell>
                </object>
                <mxCell id="37" value="&lt;font style=&quot;font-size: 15px;&quot;&gt;AO(Activation Object)&lt;/font&gt;" style="text;strokeColor=none;fillColor=none;html=1;fontSize=24;fontStyle=1;verticalAlign=middle;align=center;" parent="1" vertex="1">
                    <mxGeometry x="450" y="120" width="100" height="40" as="geometry"/>
                </mxCell>
                <mxCell id="39" value="" style="shape=image;verticalLabelPosition=bottom;labelBackgroundColor=default;verticalAlign=top;aspect=fixed;imageAspect=0;image=data:image/png,iVBORw0KGgoAAAANSUhEUgAAAWoAAAC1CAYAAAB2x7WtAAAAAXNSR0IArs4c6QAAAARnQU1BAACxjwv8YQUAAAAJcEhZcwAADsMAAA7DAcdvqGQAACOSSURBVHhe7d0LdFRVmi/w/+1uG6xKyMsKj1CJCdEEDAmFNIFAEwTS4Fxc6mBubJseTZwBuYN9bV2I7W16WOLYKKtt7+gslHsl2s3YzaAtjqwRJqDAhfBQrCQGIRAqJEUEUiQBKlWC9p2++5yz65lHVUJSdZL8f73O6rP3rnPyYPnlq+/s2vu/ZOdM+wuIiEi3viP/n4iIdIqBmohI5xiohzHTigI8sTEPd4jzO54twhMb0mHShkIw4q4NRVjygGz2mnb9E88mi/NkLNlYhNIVRm2IiDoJO1An5dyLWXcVwWyQHUREFBFhBOo0ZN91L0zOBrhlDw0NDocL6LiKFnHe0i7OxeHQhgaYS3w94IryNcV5WwdwVfleiKhLIWd9JOUUwWCrgB25sOSPxqUj4jzSEXvMemyeBuza8Qy2yq7OfUuxdvE9SFXPhfMfouzYFu085hn889x47N9Ri4me13RYsWnvehxWX9CT+Vj2wkTUbW7DjDILYpQupxXlv34HNnVcKFyJdQvTZAOw71qFTfuUM+3admsici2x4kvuhC1zEXJjnajZ/By21SuvyUTxL5aLPuVcsO/Emo17ZCNK8tNR+sgoHF1RjeOyS/VAHp7Iv4p/WdWCnA0FSDxSLX7EPJjVwRZUyNcrJZWfZJwXr2vwBv6u+ogoPCEz6tbaKATmYBdq0YR0TBwj28KM2GQRjGu9gbvkzhyc2FGCMvX4EE1j78Fav9dDXL9w8Txc2SvHYyxYFDDekzQsKEvE4WdXYc2zO2GPtWBBoRxSgvGkE6JfGRPHrkaYF66Ed1hcm3vLQbU/xrIICZWrsNseiwxLpjpauEIE6csiOKvXv4Ga+EVYXayNRc0RF67CiOR82e6GeX4m2t6qwCsrKlHdkYzpss7s+Pw8rsSMRY73eiNyMoy4YmthkCbqg0HyMHELdta5kJqyVLZnY2YK8EWdzJiFrcf8sm3x+hPnRRYXO1u2NU2fleG34m12d+PdUzLg16AmydiDOjuQkOwJpnuwyT8D3ndCvPtIhHdYubZCjotMfLd2E2k+ssyN2O29vh7bKkVAz5yODNnTk5iVLyP3peDjH5F0m3xBn2nlCJWSXcsHjiaTCMR+5RH7nkp8ckQ5c6HW5kJcgnwgeKQBR+1G3DpVtvOTcWtMC45uZHmDqC8GzayPw+dP4euxOShRGjGzkYlTOOQJJgqlFLJ4q/dYOFb2ezXgxAV5Kmw9VoK/P31Atm5M4YoNWPeC51gkSwFhyByNBCVb914rDr8SSigdrz2JmqeDj/+J1tPyBX2m1JCNSBQ/iGnqKFwVf5g82bVWVw7t+KkWxGUkq7NITFPFP0ZNfWAZhYjCNmgCNToOoL5DK3/MGHs70HzAV19WatDT0kXG7Cl9lGCXyJgjIaP4V1igZMWe0odSGpFj4fG/Vh7+9e8eDFxGrT1cHGVKRo5I7U/uuYpEkR0ni4w57Id+756HXS1/KGUP4OznzKaJ+mrwBGocwKFmF0yxSzEzpQX7O2XDLlzxZNgiu+6cUQ8gZ5s3OBeu6EVGXX8UNqfIqFfMlx29M3AZtYfIqtvP4/gREWQzMpGd4EJb2H+FxL9RDZD3QB5uba+XJRIi6ouQgdqQVoRZd92LWfnpMIj/peZHbz714dMfw5F1DyY7fQ8RVR3rsf+8EZPnytJH9mV8EaGM2rbtoPpwsVSWLmZcsvYio67Htl9rDxB9pZMN0X+YKChT9+JyxfdxSp28h5PtyTDHuNDSi4CrPVQUWbh6DyLqKy7KRAOnu2l+RNQrg6j0QYOLEXc9IDJyPkQkumHMqKmfKet4FCBP+WSQvRqvvMCyB9GNYqAmItI5lj6IiHSOgZqISOcYqImIdI6BmohI5xioiYh0joGaiEjnwpieFwdz/lykej4y7qjCwdpG2SAiooEWMqM2pE3HLRf24uAnH4ijCq2mKbCkxclRIiIaaCEDtbuxAtbGK7LVCIdDBO/YeNkmIqKBxho1EZHO9S5QmwqQbXKjycYaNRFRpIQfqA25sOSY9LHZLRHRMBJeoFaCdH46YNuLk9xGmogookIHar8g7XuoSEREkRJyHnVSzr3IVraSDuBG0xGWQIiIIoHrURMR6Ryn5xER6RwDNRGRzjFQExHpHAM1EZHOMVATEekcAzURkc4xUBMR6RwDNRGRzg2+QD3nTcxcVyGP9zF+guzvLw+fx4k321AqmwOvAzu2ncfzskVEFCz0JxNNBZiV4/cZ8qhuxfUkstbdDVQUoW6/7OpPc9pw9PF2HH91AkqD7588BuUPjoOhyYaS7Zdlp+an903F4lTZcH6FV8sv4IBsIicDW+f5bbTQxfWlq8/g6dsT8NKjiSiXfUREHr38CLm2f6KyNVdUFmia8BLyHkmCfc2jaJNd/edblL9ZjTtO5WH6izfJPs3swkl4PKMN1vZxsCAo0CqBOLNN9o3EM6WTYGnvHIw12niW7UuU7rsm+zTPb/gMP7rU+WsTEfWy9HEFbpc8jYaUJHj22O1ECeLekog4lj8pBzSGJe/7lUwqkDVHDng8fAkzkIGNwYFSZNKPJnyFEpElN8uuALX+QfkaDthEAE4YidmyJ9A1NLfL0yC//DADmHaJJRAi6qSXgToNJpMblxyRzaa9QbZIqS+kIssTcL3B+ElkPWLBtYoiHFqjHB+hbfzdyFtSrA3PeRN5U9pQp46Jo6IJiUWB9e3nc5rhPBXbufTQcgGlXWbHfRGPnNRrqDsRmE2r9sfi+NVmTHlYtomIpLACtSGtCLPuulccU5DkOBXx5U3d793vDbBAky/gvvGyOm5Y8kMkdlhh99aVX0adeK0h8wciAy/G+JmpcFft9JVL9j+KunMxSJoiAzm+RUqiEpNvsOygZN95I3H2U78ataCUTrb+bKo4MnBr01dY3yIHAtyEZvENJo/5VraJiDRhBWplJ/KDn3ygHlbn7ZiVn9t9CSJaLl9AT38/rjm2ybOuXIdplDzts3i8+OA4oPpLrK6VXdKBfV+i5J8+V49X28dha+mYLksjZy4lIPaW67JFRKTp9fQ8t+Mi3IYY3CzbuhE/JuCPh8EkUmQ/I02e7FlRDIPfRAxgBBxX5WmfiCCtZsu2Tg8Jgx040QZ3rAHpsu1vwi3tcF4aIVtERJpeB+qkjHQYHM1olW09cFedhjvGArP3AeGTME+JQduhp0WWvQ1t9R0wTFkEb+ieswjmmCbY3/Nk2TdSdvAF6a5negT6aYEyxa8Nv5dtn34qvxDRkBNyep5Sn7Zk+OWq0ZxHrXzYpQio62p6njp1z+LNqt1Vm1DtDcTaA8k8Ebw1HbC/dT/OnZFNhfJBl8XAe8Vj8UvZpZGBWLa8ZGBWp+7ljZSdPmc//lwtgXQa7y6gq3O4r+M/On19IhruuBWXV/fzqCOB86iJqDu9Ln0MXTeh9G1lLnMTyoPnWA8w5ZOJSxK7mMNNRCQwUPvbn4jpOwyY8XBk1/pYMs2A9/jxcSLqBksfREQ6x4yaiEjnmFHTkPLI0gfkWdfe2vKuPCMaPBioaUhRAvX/+dc/yFagv/1vP2agpkGJpQ8iIp1joCYi0rnBF6jHrMfmxVvlsRk/93zYMMpm3LZZ/Z7WjpEdEaXsfONba9u7vGu/UT4M9Bl2RHAJVuUDQDf69V54oRqn/0UcL0RzEXWiG9eLQK3s7qIsdVoEc9SWzluKtdPS0fRZCcp2KEcZftshhwbUbPx8brSCcGiJy+9G4rmP5FrcRQEfne8Pz2+oxoy2bCx+W3ZEgLKRQvLiM33/8NHSiyhOG4NtP8nDbc8aZSfR4BR2oDakTUeqyxHdxZhixsOEBpy4INs6cvh0mfrHY23EvzdtJcC2E9ra3P3u4fNYcmsK3lsV4bcuN/jho0dHfw00xuBZ2SYazMKb9WHIhSV/NC4dOQVj/u1wHamI+OYBKqXsMQ3YteMZbJVdGpFpL56HK3t9GXbJnVsx5+qr+PvTB7TrUmqx6eo8LMvSsquv6+SYh3pv3+KjnnHlPgvHyk4/vuuVr30PtL1tXfjC73vwCLyH/2uUTL0M+OxjxM313KOhi5+vJz1t+KuNeVcN7LCi+kVlRUEpaCErKFm53IxBo61/Yto/LSCbHnmzAYWFd6GxqRHZEydhxIjv4/r1b7Dv491ob29DQkIiZs+Zi5oqKxobG9Rr5i1YCHdHB6qqreq1LlcHUsxmOFoc6rgp2YTqqiqc/NJ/Me+uv35PPLM+Hn3qLJ5JMgVk05z1QYNVGBl1HMyTRQCzHY1OcBY89V8tkKZjoadGfedS7QXhGHsPlo36WCuZfNaAm7MWo0QOaUE6WQRQT0mlxBvEtx5T2q/iCxFYfSUX3ziwBWvVvg+h7D8TTPneF8ZasUlet6kOmDx3ve9rwyjayh8Zz9dJx5zbut5xMYB3j0gtECcWeWrUb8rAXIzxq+/GyKpNsiSyCXZYkBfu9mWKOU7cMSoFVV0Eye9+77vImZwL62ef4oP3/4Rvrl9DVtZEOdoz5dpRcXE49umnSExKUgN4o60B48alyFd43IT9pxIwISci9S0i3QodqE13iEyvAXXR2HVc8pQVlACrZZxa0Cs7tkV7QThENrnJ8/oLtSKoJmOc+m5eZLXZ6SJD3jwA9e6lWCQy+KaT63FY9hw+vVkNxhP96t1Nn3ky7AM41OzCzaM6Lara2ZmnUe0JsKLZ5g24cgnYTmtub8O5d61wj79DDeQ9b18mpV9H7NUR8F8N1l/tFzVqxnztazfaLrXCEBN+ecRms+Hbb77B9WvXUFd3QvZ2Vn5BfDeJ3/S6/DEh6QqutnITBhoaQgTqNGTniEAj/oOMUjIdAbciTsQXh9OvDNKvXLgSrYSwoxU97jcTYvuy0jE6+FdvGAHnqOvw24e4R9Pzt6gzPaZ+mYc7f/M92Us0uPUcqE0pSBL5Vao620Nubutp56TJFw12Zwc4kBrVPwQ+2h+GiIhJQsCWBinKv56fENuXqdlstIXI6oMdPbIUt/0kD59Pqsaxp/4se4kGt54DtaPSu6mtdlShVeRgTUfEebR2eemWLyCqdeEuHgB2TSs3pE7zrxsHO4CvnEBqSi9q4qotOHFeXJf9DGbInhm3zUNqhxU7B3p2yP7jaEMqzN6ac+Bu7D1vXyb1Mpv1993vfQ83G7UHeTNmzFIfFvaFmtW3fb/XS8CeaY3DqCRuFExDQxgPEweDLVj7WYMIttpDRuWh4S4RIMOl1MA31SX7HlKK45+DHuhtPfYhmsbe03nc+wEcZdaG8mBQOfd9EEd5GLnLacEyed2yrBbs2uurWQ+cl1G35iNcm7JMPmRcBvPlj3xzrJUa91tWjPQ+hNQePAbMHNkfi+NXm/Gj1b3bS1KZ+XHyxJfImzIFJQ8tVWvXntkdvfMt5tzejjO1kXoLQqRPXJSJetbtXpIRoHztOSPwUi82VeD0PBqKhkhGTQPm7bF472wzlmyI8BNRZbPfxW4cfrtvO9+8efFmdbbIo7JNNJgxUFNIv1yVh8OJJyO71sc9NrTsmIDSTh/iCdOW0djW1oRnuNYHDQEsfdCQwvWoaShioKYhhTu80FA0KAJ1waw5qDzY1/fARESDG2vUREQ6x0BNRKRzDNRERDrHQD2YZT6E1S9swDr1WIlC2d0//Lf3eh/j+/I58rAU4B9m/g6vJMtmWB7EKwvWoUy2iIa6796SPG6tPO+asmnA7BmYkJ6NVM8Rcw32lsgte2pOTYPdrre1RXSg7Qsc3FOBTxpNmG65Gef2HEX//ZYOofWT3+PcJyYY56Xh26qtuNouh/pRWe4/Yt63/46Hbf4bBoRSi6//UoKyiVn46tyhfvyZifQpvIza3QCr/+JMuluQiQal5HW4L7kR22v+KDvCt6/hMWx35eGx9ALZQzR0hZ6ep2TUk4G6I9Fbk1oP0/Myin+FUkusbAH2XauwaZ92HmqsGO/g8C3LscCs9fmPA5ko/sVy5Hovb8TuZ1+DZ7ine3spJZCyRBz2u04TdG/7TqzZuEc2wqWUQH4I11v341zAWqO93OZL1YQ6z8YGasnjMSSc+Rs80aJ2SPOx7IWJaLcmIlf83B3WnbBlLhI/gxM1m5/Dtnr5MoXxKfxhZjwqdq/BZtlFNBSxRh0GLVi2iQC6Cmvk4Q2WhSsDx3Y1wrxQBOdMOS7EWJZjxqU31PFyqxPmgoeQIccyih9C7mURQD3X+wfbMO7dk8IVIkh77/0GauIXYXW4F/co1DZfYvwBC+AZr1A2KeuA/S1PkBaMM5FtbERNQJD2SEPuLQfVnzfGsggJlauw2x6LDEvQ9+46hJMu8dpe1beJBp/wArUhHRZ14wDlKECS7B4e5mOByOzsu4KzVYXIWAvS1KzPO7bvtc5BRWSyL8pU0GatR0dsImRyrTFP7OJBYJj37tZ8ZJlFdu7NoOuxrVIEvszp3j8SfRZimy9M+AGSYjrQWiXH1bWxY2D03xLRGA+j63I3GwKI7LlCft9OK3Z3/sVLlbC7gNFGlj9oaAsdqN01AfVpq82I7OEUrDNHI0EEjvZm2e5Ce4v/+/HesW17TgTfNCyQszeCM94+31v9vn33VY+F/bgrT0/bfJ25IMZikDRFblowRwngTXD4Va8KjX3bSCDYGacbxlht/3aioarXpQ+342LUatVRUX8RoSY7JCT7B9dMJMfL0zDt2+gpe+xEu2V5QLC+sXsr9W7PveXx63dgk6M3pMdtvuxwdYg3Yp5NC4pS0VbhV/YQ9rn6spFAZxNiDXA5u9r/nWjo6GWgjoN5cjoMjma0yp6hbw/q7LHILfbVlX3qcazeqdZRvaWLQuXBVyMOBzz1Clcj2p3y9EbvXX8UNqfIqFfMlx3dKFypZduhXucvxDZfamkEVrlLunYE7ByjcF2Gyxjfp22+fApgNgIXXZWyTTQ0hZz1YUgrgiXDlyu5bXthbYzcHGqFHmZ9FK7Y4J21oeh+1kfg7AR1THkw5qkVB8zQCJ7xIQTNzAh5b78ZIRr/WSOd799hfcNbL1cpgVopiQTPCJnzppoJB1IeCHpmfwTN+jj3EQ698bJsKA8bl8EctINWW4V/wNZmfWRfeB0/bvAPtMqsj1loV37OFPG9FbShXLwLMIvfv/JANuB756wPGia4eh71PyXIz2wNnK6nBn74Tc8Tktfh33KB7X0MtGW5v0ORMzjQEw09nJ5H/c5g8ubZXokTRXYe/ACyZQ22t6ThvtwHZUf4CtNfx33GarzOIE3DAAM19Tv3e+9o86q9a4VUICs+6AMx0uaa13HM+Fe9Xuvj/gkObD/0my6mTBINPSx9EBHpHDNqIiKdY6AmItI5BmoiIp1joCYi0jkGaiIinWOgJiLSubCn5yXl3Itsz4JnjqqI7vLC6XnRM7twEh7PG4mzH3+O1QG7ZY3EM6WT4P0Ee5MNJdsvywYR9acwMuo4mPNFkIYIztyKaxhRAvFUKB/4Pit7/P30PhGk20Vw/qfPxWHD2dQMlBcGrKdHRP0k9Oa2pjsx+funoxqco7m57YzbNuO53Im4ePYAznXXN2Y9Ns/9O9x7e7F6WK6+i70d6ku1sWnTcPHSbPziR4/jAeU1sSPxwfka+YLuKAsqrcQdYyfjx0uLMe/2/8R//uC/42//+ke47c8VODbAv47Zhbcjr74GKz/9HoryE4CG89jt2Y0leQx+Pusm1H5kxwGX0nEN10YmYHbGX3ChqgNcdJSof4XMqJNGm+B2xiHbu8OLXwlkGDh8/hS+jrkdM/1WgksbZcTXzQdwWG0txdqUWpTtKNGOzxqQOm09StQxKcaCZXPjsV8Z32vF12Pn4edBK8t1LRa5mW0o32xFh3mRunqcupXXpF4sSdpHB/Z9GVTq8JNsgMHZhgOewJ2ToZZHEGtAuuwiov4TIlDHwWAEDBkxcHjLHg4k5RTBHLhr6dDVsR77zxuROXa27FiKiWMbsP/0AdnegrXHtshz4UKtyCiTMS4gELvwxd5nsFU57TiA+g4j4sIK1IC90rPQf2/XuL4HKS+9jNzgY83f4fvyFTdMZNblP5uKrfOAHUr5AyORwv0LifpdWLM+WmsrfRsFOI6jyW2AUQTw4WJrcwNuTpmNGUpjTA5Sz9dqQVcquXMrNi/2HPeg08ZQHadwyFMKwQH8dm8J1l6QzQHzIZqffhI1wce6/41v5CtuSOw4PP6gAR/LGvXvk0eKP0/X0NzlZrVEdCNCBOorcLuAmw1xsj1MKVmyLH+UpKSjqdmXQSv16oUiw97lKX3s+FAnNdoBzKhb3HCLoGz9owjQsksrh7jRIJtE1H9CZtStFx0wZNzh28zWdAdSDQ44+mfLu0FiC06cV8oVSzEx1oqdwdlwx2V4nu2V3NlFRh0VA5hRt1xGnXMkLP91DLSC0Eg884N4uG2XxfsFIupvoUsfjkq587h8mJgDnPzErxQyTGyts8I07R6YvA8RNYdPfyyybQuWydLHnKvWoTHrIScDW5X6888ycKto3jpPOZ+KF8W/vzLLY335l7BiHB5XXzMJWbYvUbqv233JiegGcD1qIiKdC+thIhERRQ8DNRGRzjFQExHpHAM1EZHOMVATEekcAzURkc4xUBMR6RwDNRGRzjFQExHpXIhPJiq7u8xFaqclTd1oOlIBu1s2Bxg/mRgdP71vKhZ7Fi5xfoVXyy/4reXBrbiIIqX3HyE3FUR8vQ8G6ihQ1vrIbJPBVwZlZestGYzVIA5POx4v/iwDydVc74NoIITeiitIUsZUGC5+CtuV67Jn4A3PrbiA7Ek5yM2zYHTyGMyaU4icybmINcbi3Dm7fMUAamnHuyc9QffP4s1VAvLHfatttcWtuIgiqnc1akMuUk0ONDVekR1DX3S34hJvYJJNMMTEYOs7W1BdVYUxKSlISEiUo1HCrbiIIqpXgTopQ/xnaDs+vJY4jfJWXM6rV1F58P+q5xfPf4X/9+c/Y9SocDZy6MeNA0QG/agIxGc/9a9RC9yKiygiwg/UajbtxiXH8MmmPYb3VlzxePHBcUB10Ga33IqLKGLCDtRKNm1wnIrYTA9dGbZbcWkPCW9tsgU+JORWXEQRFV6gltl0ky06D/SibzhuxeUL0p2m3XErLqKICiNQx8E8eRhn09Jw24prduE4dQsupHq25OJWXETRwq24iIh0rlezPoiIKPIYqImIdI6BmohI5xioiYh0joGaiEjnGKiJiHSOgZqISOcYqImIdI6BejDLfAirX9iAdeqxEoWyu388iax1FZipHu9j/ATZ3e8K8A8zf4dXdLPq3oN4ZcE6lMkWkR6EFaiTcu7FrLt8R7ZJDlB01b+DF59dhTWbrfAuztdvXkbdmiIcWvMR2mTPQCjLfQx3uv4dT+hm1b0/4v0zJtw386l+/sNH1HchA7UhrQjZqMLBTz7QjlqHCNwFSJLjRH2WvA73JTdie80fZYc+7Gt4DNtdeXgsvUD2EEVXyLU+lGw61bkXVs+uLoZcWPJj0DTM9kzMKP4VSr07uQL2XauwaZ92HmqsGO/g8C3LscCs9fmPA5ko/sVy5Hovb8TuZ1+DZ7ine3spJZCyRBz2u04TdG/7TqzZuEc2wqWUQH4I11v349wZ2aVS+u+Gd6+ZDiuqX3wa3nW7JryEvEcsCNwXuUlk6Y/KDF0peTyGhDN/0ymbDv07m49lLyyCHPL7uZSf9yHxTqMNuZY0tX83Fqn36P7fK/D37WV8Cn+YGY+K3WuwWXYRRUvIjLr1ogOGjLmy3OFZSa95WO3yov2H3Sb+g16FNfLwBo3ClYFjuxphXigCTaYcF2IsyzHj0hvqeLnVCXPBQ8iQYxnFDyH3sgg0nuv9g0YY9+5J4QoRpL33fgM18YuwOtyLe1SM8avvxsiqTTiklkc2wQ4L8pY/6Rt/wAJ4xiuU9QQ7YH/LE6QF40xkGxtR003Jo6ffWeGKiajz/E6e3Qm7eRGWeesUscjNbEO5Ug4S/co91OsnzdeGg36n5dZELBDB3XNvL9chnHSlIZc71pAOhK5ROypx8JMqQK1Tz8UtF/biYO1wWpd6PhaI7Mu+q4usS8ngCtJEMrnTN7bvNey2xyLD4hcQRWb34rZ69dRmrUdHbKIvG1SYJ3ZRDw3z3t2ajyyzyBa9GXQ9tlU2IiZzeueg1FtzRDYb0wT7e9tkxzace9cK9/g7tAx7wg+QFNOB1io5vv+4CNAxMKZoTZUxHkbXZQQk6cLj/+Mpb7arBGvlQanajrWgVD44XWBOwwLvQ1QtszYvVM7luwfltWUW8RW1e6jXi6Ctvn6hyLThu95z70fW/Vr0+6uE3QWMNrL8QdEXOlCbCkSAvh2uI0qNugpfi+x6Vn5u0FvaISxzNBLgRHuzbHehvUULwn1h2/acCL6+wBGc8fb53ur37R/QPEGqn3S0otvVp89cEGMxSJpSrLXnKAG8CQ6/6lWhsesn0q/+r9+oGbBazvBkzerDUqVEIdvinUWwDquSfYt3DcqluwKv8d1PG+/MiS/e/oU89znjdMMYq49tIGh4CxGo42DOMMFtOyo3DWjESRGsWw3pSB0uMz/qL6JdnnYnIdk/uGYiOV6ehmnfRhmAxNv4dpEB+gfrG7u3X3DzHL9+BzY5ekNikjBSnqpSkvz+eNvh6gAMU5Zp0/uKUtFW4Vf2EPa5HPKsl5R6vPiDowZj+TPttsuxMPlfqx3PQb7hCTAh1gCXcyhsA0GDXeiMWjDE+kUHUwqS4IZLvC0cHvagzh6L3OIu6piox7F6p3h7vchXuihcJN5+N+JwV//lh9SIdm/Gd4P3rj8Km1Nk1CtkbbY7hSu1bDvU6/yppYxUmJfIjFmpSc9MhbtqpxaMldIIrKhW69faURf8LNh1GS5jPPo2PdvvHY74/j0PHEPTfqfmheHMOS+A2QhcdFXKNlH0hLHDSxqy75riNx3PjaYjFRHdlksPsz4KVyi1UdkQup9F4ETNZl+Gpo7dctA32yJghkbwjA/BO4NBE/Le3jEP/1kMne+vlAg89XKVEqiVkkjQ18WcN9VMOJDyQNAz+yNo1se5j3DojZdlQ3nYuAxmpUjsp63CP2Brsz6yL7yOHzcEBsOef2dB/xZOK2ouW5BxSfm5xFcWP29Cpfi3afZdYw+6X6ffm7hHefA7Dc76IB3hVlzU/5QgP7M1cLqeGvjhNz1PSF6Hf8sFtuswGJbl/g5Fzs5/RIiiIazSB1FvGEzePNsrcaLIzoMfQLaswfaWNNyX+6Ds0IfC9Ndxn7EarzNIk04wUFO/c7/3jjav2rtWSAWy4oM+ECNtrnkdx4x/pau1Pu6f4MD2Q7/xTYskijKWPoiIdI4ZNRGRzg2KjPqRpQ/Is86Ofne1+v+n3vmh+v9EREPNoAnUb/3pT7IVaFLxEfX/GaiJaKhi6YOISOcYqImIdG7QBOrSJ07jxNtHceK1VpTKPiKi4SCsQK18ZNe7AltXa/dGQPkrt2Hiw9PxXvsZrHjiW9lLRDT0hQzUyroIC+KtKPesVHbZgtLeLODTz355Yjxik67LFhHR0BciUMtF8yt9C9bsq1B2zuhqoXsiIhoIYZQ+ghbNV9dnTkTAMslERDRgQgRquRZzka/UUbjCb1PRaDg7As7Uq3heNomIhrqQGfW+jdrmoZ6HiVlfijbacAO7T92YyiRMf2MEfqTMAFnXITuJiIauMEofe7DJb9uiTc2jkeBsE8E6Sh76CiceAjY+PB0T1wStTE9ENASFEaj9qDttZMK2rZ/23eur9hEol6dERENdyECtTM/zzqFWtzbqeiNQIiIaGCEDtW3bc96yxxrvXnxERBQpvSt96MDzE8/B2TpCtoiIhr5BE6g9a30sSR2P/3jlJtlLRDT0DZpA7VnrY+LD4/BL2UdENBxwhxciIp0bFIGaiGg4G3QPE4mIhhsGaiIinWOgJiLSOQZqIiKd8z5MNKQVwZJhQGvtBzjpUMe8PGMaB05+UolW2SIiooElMuo4mPPvRRYudh18TQUiSLtEcP4AB8Vx0mFCdn4uPGGbiIgG1ncMadNhtH0Aa+MV2eVPBPEME9y2494g3mprgNswGkmM1EREEfEdd2NFp1KHTzyMBjcuOTxBPE1k0+kimzbAaJRdREQ0oMJ8mKiVR2bdNQWQNeybDXFyjIiIBlIYgdqA1Py5anlEq1HHwSCy6a/dXZVKiIiofwH/H/H1FpiPR7koAAAAAElFTkSuQmCC;" vertex="1" parent="1">
                    <mxGeometry x="400" y="311.51" width="260" height="130" as="geometry"/>
                </mxCell>
            </root>
        </mxGraphModel>
    </diagram>
</mxfile>